/* XPM */
static char *dummy[]={
"32 32 3 1",
". c #5d5d5d",
"a c #ff0000",
"# c #ff6f6f",
"................................",
".#a#a#a#a#a#a#a#a#a#a#a#a#a#a#a.",
".a..............................",
".#..............................",
".a...aaa.aaa....................",
".#.....a...a....................",
".a....aa.aaa.a.a................",
".#.....a.a....a.................",
".a...aaa.aaa.a.a................",
".#..............................",
".a..............................",
".#..............................",
".a..............................",
".#..............................",
".a..............................",
".#..............................",
".a..............................",
".#..............................",
".a...a.a........................",
".#....a.........................",
".a...a.a........................",
".#..............................",
".a.aaa.a........................",
".#.a.a.a........................",
".a.a.aaa........................",
".#..............................",
".a.aaaaa........................",
".#.a.a.a........................",
".a.a...a........................",
".#..............................",
".a..............................",
"................................"};
