/* XPM */
static char *dummy[]={
"16 16 13 1",
"f c #000000",
"i c #000005",
"k c #00000f",
"c c #020278",
"b c #0e0e92",
"h c #101095",
"g c #13139b",
"e c #1919a6",
"d c #1a1aa9",
"j c #1d1dae",
"a c #1f1fb2",
"# c #2525bf",
". c #2c2ccb",
"....#..#...a...a",
".###aa####abaaac",
".db.aeeeee#ebabf",
".#edgdebb###a#df",
".dbaabaeeggddhhi",
".#agca.aadbcjjhi",
"ccccfccccccccccf",
"ffffffffffffffff",
"..#.###b...#....",
"##d#addk.##dd###",
"ddaggbbf#dd##dbb",
"d#.#ddbi###dda.a",
"hhddbdbi#jjhhd##",
".ddbdddf#jbjjjbd",
"cccccccfccfccccc",
"ffffffffffffffff"};
