/* XPM */
static char *dummy[]={
"64 64 20 1",
"h c #000000",
"m c #3e1a00",
"p c #4c1f00",
"j c #582400",
"k c #602800",
"# c #6e2d00",
"a c #763100",
"b c #823600",
"i c #8a3800",
"e c #9a4000",
"g c #a04100",
"f c #a84500",
"l c #ba4d00",
"o c #c44f00",
"n c #d05400",
"d c #fa6600",
"c c #ff8600",
". c #ffa100",
"r c #ffc100",
"q c #ffc300",
".#aaaaaaaaaaaaaaaaaaa#..bbbbbbbbbbbbbbbbbbbbbbbbbbbb..#aaaaaaa#c",
"deeeeeeeeeeeeeeeeeeeeeddffffffffffffffffffffffffffffddgggggggggd",
"heeebeaeeiaiiaiiaea##jhdfefgaefi##ibeeb#befebieffei#hdgfeieggiah",
"heiabiiiaaeiekiia#aa#khdffeiii#ij#jjaeek##k##j#bb#k#hdggeeaieejh",
"hebe#lliaaaibbakja#jjkhdhhhhhhhhhhhhhhhhhhhhhhhhhhhhhdgegffgeaah",
"hebaellkaaaeiiib##ajjmhdeeeeeeeeeeeeeeeeeeedddddddddddgfegeaakjh",
"heiiggeeeieeeii##kjk#khdefffgeiifiigiigffeehdeeeeiikddgiieabbkkh",
"heeieggeiakeeibbakkjmmhdegfnlgefeiiiggeeeiehdeiibiakhdgiie#bbbkh",
"heiaieebiai##bbb#aakjmhdeglfligeefiieaeaieahdeiiiaakhdgfeieebbmh",
"hebbbeaaaee#jkk#kaaajmhdegggiiigeeeeibkaaakhdeeiaajjhdfaaieeijmh",
"hiabebb#iee##kjkkkaajmhdefgggiigffeekkbaakjhdeeiaeajhdfafeaiijmh",
"hibiaaebkajakjkamjmmkmhdefeeggggfggekk#ekkmhdeabiajjhdffaakkaamh",
"hiaiakbbakakakm##mmmkmhdegeeifiieggeiiaajjkhdebbb##khdfa#kakaamh",
"hiiaaa#kjjkak#kmm#mkjmhdegnlbbiibaaabibakkmhdeebb##khdfaa#jjjjmh",
"hiaikk#kakmmmmmmmmmmmmhdefllbbbeeabbab#akjmhdeaiejjjhdhhhhhhhhhh",
"hhhhhhhhhhhhhhhhhhhhhhhdefeeibbeeebbikkakjmhdeeeiejkhddddddddddd",
"efgegeeeeegeeeehgggeeiihegiebieeeeaiiaajjmmhdieiei#khdeeeehfffff",
"fgeiefgebeeaeiahggiffafheeeefeieeebk#ammkjmhdiia#a#jhdegbahffegf",
"fgiibeebaiiaaiihgffgiaahegiefebabbkaa#mmkmmhdiijjjkmhdeggahfeggg",
"geiggiiaaaiaaaahgfggiikhegeeebeaak##jjjkkjmhdiajkjjmhdebajhfffgg",
"ebigfgaaiiaijaahgfiaiikheeeiiiiakjkkjkkjmmmhdiakjjmmhdejkjhffggg",
"eebigoaiaakk#aahgifaaakhhhhhhhhhhhhhhhhhhhhhdhhhhhhhhhhhhhdffeei",
"gbabieiaaik#ajjhgiikaajhdddddddddddddddddddddddddggggggggddfeeii",
"gebiaiaiia#akajhgfibkjkhdggggggggggggggggggggieddglgleeeihdfgiii",
"ggibgiiiiaa#jjjhefabbkjhdgfgefffgfegefgaefffaejhdglglleibhdffiii",
"gebabggkaibb#jkheak##jkhdgfeglnnfonefeeffeeeeajhdgllllebahdfgfee",
"eiabeggeiabb#jkhiajjjjkhdggefoonfnoogaeaaeaaejjhdggelebekhdfffee",
"gigiiegeka###jjhhhhhhhhhdgffgglleeooeeaaa#eaajjhdgleeeebkhdfffgg",
"ebbeeieek#jkjmmhdddddddddggfgggeeefeeeabbaajjjkhdglleeba#hdfeefg",
"eibeeeia#kjkkjjhdggggeeddgeefgbbefgaeeabbb###jjhdglliieejhdfeegg",
"ibibeeakkjjjkmkhdggbeibhdgfgfgbbeeeaeee#bbj###mhdggliiiejhdffiia",
"ibbabbakk#aakmmhdgeeibihdgffegggieaaaee#jkjk##mhdggebgeekhdfbbii",
"ibei#aa#k#aakjmhdgeib#khdgfeaeggeea#ak###jmmjmmhdgglbggikhdfbbaa",
"ieibbakkjpp#kjmhdggbgbjhdgeefaeeia#aakk##kmmkkmhdgelebiijhdffaaa",
"aiibaaaajppjjkmhdggg##khdgafaeeaa#kaaakkjjkkkpmhdgleeij#khdfeeii",
"abba#aaajjkjjjjhdgggejjhdgefaee#kkjaaakjjjjpppmhdgleiai#jhdfeeib",
"abk#akaajkjmjkjhdgiijbkhdgeaeeajjjjkkkkjmmmmmmmhdgleaiiakhdfieea",
"aiakak#jkmmjmmmhdgiigjkhdhhhhhhhhhhhhhhhhhhhhhhhdegeakaakhdfibba",
"abib#a#jjjmkmjmhdggbgbjhdddddddddddddddddddddddddeggeajkmhdffbba",
"aibak#a#mmmmmmmhdggbbjkhdeeeeeeeeeeeeeeeeeeeeeeddegefeakmhdfiiab",
"hhhhhhhhhhhhhhhhdggaajjhdeffffffgeeeeeeeibafieahdeleefbjmhdhhhhh",
"dddddjj##bbba#kddegaaajhdgfllfeegglfiieeiababiahdeeeebbjmhdbibbh",
"diegfffffffffffddeebaakhdgflllggggffaaaaeeeiiakhdelea#jjmhdiiaah",
"defffffgegfeeefhdeeijkkhdgffffoogggaaaaaaiaa#ikhdegb#kj#mhdia##h",
"defggoogfffieffhdeibjjjhdgffgfoooaeiaa###baaaakhdee#k#jjmhdi#ajh",
"dfffgoofiieffighdhhhhhhhdegfgffoofeeia##kkjaaakhdbaajjjkmhdba#jh",
"dfegegggiiifebbhdddddddddeegliifefeeeeaakkakjpphdhhhhhhhhhdb#jkh",
"dffgibggeiieffehdffgeeiddeelliiigeeeaaib#kkjjmmhdddddddddddddddh",
"dffiefgbegggaeehdfafbibhdefffgiifffeaaaakkkjjmmhdggggffffffffffh",
"dffffebfbgaaebehdfeggiahdegeegggffffeab#jkkk#jphdggeeggggebfeeah",
"dfefieefgiapaeehdffaea#hdefeeeieffffeeejjjjk##khdgegoogggieeeiah",
"dfgiifnfebeaaeehdfgeeaehdeffeefbbfffeee#jjkjppphdgffollggbbeiakh",
"dfefenqniieibabhdfgeae#hdeefiiaaabeeeaaakkjjjmmhdgifillggeeaaajh",
"dfgfgfnfeaeeppkhdfeggakhdeefebbaaababjjii##jpmmhdgfgiiieeaaaajkh",
"dfefgggbbba#ppkhdffgibkhdeiffifaabaabajiib##kjkhdggeiiiea#kajjkh",
"defggeaaieiiakkhdfgebbahdefiefeba##bbjjaiia#jjmhdggieiiea#k#ajjh",
"dfefgbbgaeei#ajhdfefaaahdefeeeibee##j#jjaaakjjmhdggfgbggiakiijmh",
"dfefeibakbeei#khdffekkkhdeeeiiabeee#k##jpppkmmmhdffgbegggiaiiamh",
"dgebbbekpkbii##hdfgea#jhdegeiifeaeejj##kjmmjmmmhdfgebeeggiaaaamh",
"dge#kbkeaaijkjjhdgekkkjhdegfaffejkkkjjpppmmpjmmhdfgefeeab##aajmh",
"deebbkbjkjk#k#khdgeb#kkhdeegfeaijkkkjjmm##kmpmjhdfffieaa#aa#kmkh",
"deiaaaaa####aaaddebaaaaddeeieiaaaaaa#kjjaaaajj#ddfeeaieaaaaa##ah",
".bbbaaaaaaaaaaa..bbaaaa..elbbbbbaaaaaaaaaaaaaaa..fbbaaaaaaaaaaad",
"rrrrrrrrrrrrrrrrrrrrrrrrrrrrrrrrrrrrrrrrrrrrrrrrrrrrrrrrrrrrrrr."};
