/* XPM */
static char *dummy[]={
"64 64 619 2",
"hC c #450f03",
"hK c #460f03",
"hG c #471103",
"hI c #471104",
"hx c #481103",
"hD c #481104",
"hH c #481204",
"hz c #4a1205",
"hy c #4a1304",
"hw c #4a1305",
"hL c #4a1306",
"hA c #4b1305",
"hF c #4b1406",
"a3 c #4c1405",
"fz c #4c1406",
"hE c #4c1608",
"hO c #4c180a",
"hJ c #4d1607",
"hB c #4d1608",
"fs c #4e1506",
"hM c #4e1a0d",
"hN c #4e1b0e",
"ax c #521a08",
"f. c #531a09",
"aL c #531b0a",
"dn c #551c09",
"dv c #551d0a",
"hf c #561e0a",
"#t c #571f0c",
"eh c #58200b",
"hq c #59200c",
".5 c #59210d",
"fp c #5a200d",
"bI c #5a210c",
"a. c #5a210d",
"ev c #5a220e",
"f5 c #5b220d",
"gl c #5b230e",
"#O c #5b230f",
"#E c #5b2310",
"fg c #5b2412",
"al c #5c220d",
"dz c #5c220e",
"#g c #5c230e",
"gt c #5c230f",
"fB c #5c240f",
".S c #5c2410",
"b8 c #5c2411",
"eJ c #5c2511",
"dF c #5d230d",
"ft c #5d230e",
"ea c #5d230f",
"d# c #5d240e",
"bX c #5d240f",
"c4 c #5d2511",
"gH c #5d2612",
"a2 c #5e240e",
"dG c #5e240f",
"aX c #5e250f",
"b. c #5e2510",
"cf c #5e2612",
".E c #5e2613",
"bb c #5f250f",
"fA c #5f2510",
"a4 c #5f260f",
"bA c #5f2610",
"aY c #5f2710",
"fu c #5f2814",
"fq c #5f2815",
"cL c #5f2915",
"fw c #5f2a16",
"cr c #5f2a18",
"a1 c #60260f",
"a5 c #602610",
".q c #602711",
"dI c #602814",
"fr c #602815",
"dA c #602915",
"fy c #602a16",
"a0 c #612710",
"ba c #612711",
"aV c #612811",
"fo c #612812",
"a6 c #612913",
"dE c #612915",
"aZ c #612a15",
"dH c #622811",
"a9 c #622913",
".c c #622a14",
"aU c #622a16",
"aT c #622b16",
"b# c #632b16",
"dB c #632c17",
"fx c #632d18",
"aW c #642d17",
"dC c #642f1c",
"dD c #652e19",
"fv c #66301c",
"a7 c #66311e",
"a8 c #67321e",
"aM c #75401b",
"hr c #75411b",
"ay c #76421c",
"dw c #77421b",
"f# c #7c461e",
"hg c #7c471e",
"az c #7e481f",
"aN c #7e491f",
"gS c #7e4a1f",
"dp c #824c20",
"fc c #824c21",
"aD c #834d21",
"aR c #844e21",
"fn c #844e22",
"fj c #844f23",
"gY c #845023",
"fk c #854f22",
"#2 c #865022",
"ht c #865429",
"ew c #875123",
"cT c #8a5529",
"ei c #8b5424",
"hn c #8b5526",
"eY c #8b5527",
"hb c #8c5526",
"hj c #8c5628",
"do c #8d5123",
"#u c #8d5525",
"cs c #8e5a2d",
"fh c #91582c",
"aO c #925726",
"aE c #935826",
"dq c #945826",
"aA c #945827",
"aC c #945926",
"g6 c #945928",
"au c #955926",
"aQ c #955927",
"df c #955a28",
"da c #955c29",
"aF c #965a27",
"dr c #965a28",
"eK c #965b27",
"aG c #965b29",
"at c #975a27",
"di c #975b28",
"fl c #975b29",
"am c #975c29",
"dj c #975c2b",
"aI c #975d2d",
"ds c #985b27",
"dh c #985b28",
"aP c #985b29",
"aB c #985c29",
"b9 c #985e2c",
"aH c #985e2d",
"dk c #985f2f",
"fa c #995c28",
"aS c #995c29",
"gL c #995d29",
"dx c #995d2a",
".6 c #995e2a",
"cB c #995e2b",
"de c #9a5c29",
"dy c #9a5d29",
"dg c #9a5d2a",
"cg c #9a5e29",
"ha c #9a5e2a",
"hs c #9a602d",
"fi c #9a602f",
"gu c #9b5d2a",
"fb c #9b5e29",
"#h c #9b5f2a",
"fm c #9b5f2b",
"a# c #9b602b",
"#F c #9c602b",
"hk c #9d5f2b",
"hm c #9d602b",
"hc c #9e602b",
"c5 c #9e612b",
"dt c #9e612c",
"cM c #9e622d",
"aJ c #9e622f",
"hh c #9e6432",
"hi c #9e6532",
"hu c #9e6534",
"h# c #9f612c",
"gm c #9f622b",
"av c #9f622c",
"fd c #9f622d",
"hl c #a0612c",
"h. c #a0622c",
"eQ c #a0632c",
"bY c #a0632d",
"#P c #a1642c",
".T c #a1652e",
"hv c #a16531",
"dl c #a16734",
"eD c #a2652d",
"gB c #a2652e",
"fe c #a2652f",
"d4 c #a3662e",
"gd c #a36630",
"eb c #a4662e",
"aa c #a4682f",
"e8 c #a46832",
"f6 c #a5672f",
"ho c #a56730",
"c6 c #a6692f",
".F c #a66931",
"bJ c #a66b34",
"hd c #a76931",
"af c #a76a30",
"cW c #a76b31",
"g3 c #a86a2f",
"an c #a86b31",
"eT c #a86c31",
"gZ c #a86d35",
"#R c #a96b30",
"g7 c #a96c31",
"e3 c #a96c32",
"ch c #ab6c31",
"ag c #ab6d31",
"gM c #ab6d32",
"#3 c #ab6e33",
"g2 c #ac6f35",
"e2 c #ad6f33",
"ab c #ad7034",
"c1 c #ad7035",
"ek c #ae6e31",
"cN c #ae6f32",
"c9 c #ae7032",
"gU c #ae7034",
"ao c #ae7135",
"gC c #ae7136",
"ci c #ae7137",
"b5 c #af6f32",
"eE c #af7033",
"eU c #af7134",
"c. c #af7236",
"b4 c #b07033",
".7 c #b07133",
"#n c #b07134",
"cX c #b07336",
"db c #b0753a",
"gF c #b17132",
"eo c #b17133",
"cb c #b17235",
"e6 c #b17335",
"ez c #b17336",
"cm c #b27133",
"et c #b27233",
"#w c #b27234",
"ca c #b27235",
"er c #b27335",
"gr c #b37334",
"eF c #b37537",
"gG c #b47335",
"#a c #b47435",
"eO c #b47436",
"cy c #b47535",
"gx c #b47536",
"#Y c #b57636",
"cF c #b57637",
"#i c #b57638",
"#p c #b5783b",
"gh c #b67637",
"eG c #b67737",
"#S c #b67839",
"ef c #bb7c3c",
"ge c #bc7d3d",
"aw c #c08143",
"gT c #c27d38",
"aK c #c28344",
"dm c #c28447",
"e7 c #c37e39",
"e9 c #c38446",
"#Q c #c47f39",
"eS c #c5803a",
"eZ c #c58340",
"du c #c58646",
"ff c #c58647",
"cc c #c6803a",
"aq c #c6813a",
"c0 c #c6813b",
"ae c #c7813a",
"ar c #c7823a",
"ct c #c7823b",
"#d c #c8813a",
"#V c #c8823a",
"#6 c #c8823b",
"#c c #c9823a",
"c7 c #c9823b",
"eR c #c9833a",
".9 c #c9833b",
"#Z c #c9833c",
"gQ c #c9833d",
"gE c #c9843d",
"gN c #c9843f",
"ah c #c9853f",
"gP c #c98642",
"cz c #ca833a",
"c8 c #ca833b",
".M c #ca833c",
"cZ c #ca843b",
".1 c #ca843c",
"e1 c #ca843e",
"em c #ca853d",
"gv c #ca853e",
"e0 c #ca8743",
"he c #ca8b49",
"#b c #cb833a",
"cw c #cb833b",
"bR c #cb833c",
"gX c #cb843a",
"#j c #cb843b",
"en c #cb843c",
"bZ c #cb843d",
"cI c #cb853c",
"cv c #cb853d",
".Y c #cb853e",
"cC c #cb8741",
"cj c #cb8842",
"g0 c #cb8843",
"fT c #cb8c4a",
"b2 c #cc833a",
"ej c #cc843a",
"co c #cc843b",
"g4 c #cc843c",
".8 c #cc853b",
"#x c #cc853c",
"bQ c #cc853d",
"b3 c #cc863d",
"#0 c #cc863e",
"eN c #cc873f",
"#7 c #cc8740",
"cD c #cc8742",
"ey c #cc8843",
"ex c #cc8943",
"#l c #cd853b",
"#z c #cd853c",
"cn c #cd863c",
"gI c #cd863d",
"cY c #cd863e",
"eV c #cd873e",
"g9 c #cd8740",
"#L c #cd8841",
"gq c #cd8842",
"ai c #cd8b46",
"hp c #cd8e4b",
"#k c #ce853b",
"cQ c #ce853c",
"cu c #ce863b",
".N c #ce863c",
"gW c #ce873d",
"e4 c #ce873e",
"ap c #ce883e",
"#v c #ce883f",
"c2 c #ce8c46",
"bB c #ce8e4a",
".O c #cf863c",
"#5 c #cf873c",
".P c #cf873d",
".V c #cf873e",
"cP c #cf883d",
"ad c #cf883e",
"cl c #cf883f",
"f7 c #cf893e",
"dd c #cf893f",
"gf c #cf8940",
"gD c #cf8943",
"#K c #cf8a43",
"cE c #cf8a44",
"gp c #cf8b45",
"gO c #cf8b46",
"dW c #cf8f4b",
"fG c #cf904c",
"cO c #d0873c",
"#y c #d0883d",
"#U c #d0883e",
"#J c #d0883f",
"#. c #d0893e",
"gg c #d0893f",
"#m c #d08a40",
"b0 c #d08a41",
"d6 c #d08b42",
"go c #d08c44",
"eM c #d08c45",
".0 c #d1893e",
".I c #d1893f",
".H c #d18a3f",
"ga c #d18a40",
"#8 c #d18b40",
"gb c #d18c43",
".2 c #d18c45",
"bm c #d1924e",
"b1 c #d2893e",
"#W c #d28a3f",
"d7 c #d28b3f",
".K c #d28b40",
".Z c #d28b41",
"cd c #d28c42",
"gJ c #d28c44",
"g# c #d28d47",
"fF c #d2934e",
"fY c #d38b3f",
"eA c #d38b40",
"bS c #d38c40",
".L c #d38c41",
"f2 c #d38c42",
"bU c #d38d42",
"dK c #d3934d",
"bO c #d48c41",
"#I c #d48d41",
"fZ c #d48d42",
"#A c #d48e43",
"#M c #d48f45",
".C c #d48f47",
".3 c #d48f48",
"bL c #d49149",
"bV c #d58d42",
"d8 c #d58e42",
"bF c #d58e43",
"bP c #d58f44",
"#r c #d59048",
"cV c #d59249",
"dV c #d5954e",
".r c #d5964f",
"ee c #d68e42",
"#H c #d68f44",
"bl c #d69650",
"g8 c #d6974f",
"b6 c #d79045",
"#e c #d79145",
"eH c #d79146",
"fS c #d79751",
"eB c #d89143",
"bH c #d89144",
"f1 c #d89347",
".4 c #d89953",
"eg c #d89a55",
"f8 c #d99348",
"bz c #d99950",
"d3 c #d99951",
"eC c #d99a52",
".D c #d99b57",
"e. c #da9446",
"f3 c #da9447",
".d c #da9951",
"#s c #da9c56",
".b c #da9c58",
"eP c #db9a51",
"#G c #db9b50",
"dc c #db9b51",
"g1 c #db9e57",
"cU c #db9f58",
"#B c #dc9b50",
".U c #dc9b51",
"g5 c #dc9c51",
"gi c #dd9b50",
"ac c #dd9c51",
"#9 c #dd9d54",
"fU c #dd9e56",
"b7 c #dd9e57",
"c3 c #dd9f58",
"gn c #de9c50",
".G c #de9d51",
"#4 c #de9e53",
"#1 c #de9e55",
"f4 c #de9f57",
"bK c #dea058",
"cK c #dea15d",
"cx c #df9d51",
"e5 c #df9d52",
"ck c #df9e51",
"fC c #df9e54",
"cA c #df9f55",
"#q c #df9f57",
"e# c #dfa059",
"#o c #e09e51",
"eu c #e09e52",
"dP c #e09f53",
"es c #e09f54",
"cG c #e0a054",
"eL c #e0a056",
"fP c #e0a058",
"gs c #e0a158",
"fM c #e0a159",
"#f c #e0a25a",
"gA c #e0a25b",
"c# c #e19e51",
"## c #e19e52",
"gw c #e19f52",
"as c #e1a053",
".X c #e1a054",
"d. c #e1a055",
"cS c #e1a156",
"ak c #e1a157",
"eX c #e1a258",
"bW c #e1a259",
"fO c #e1a35b",
"gy c #e29f52",
"#X c #e2a052",
"fH c #e2a054",
"cH c #e2a154",
"dR c #e2a155",
"fI c #e2a157",
"fW c #e2a359",
".p c #e2a35b",
"#T c #e3a053",
".B c #e3a154",
"bD c #e3a155",
"dQ c #e3a255",
"br c #e3a257",
"gV c #e3a357",
"d0 c #e3a359",
"bo c #e3a65e",
"dN c #e3a760",
"bu c #e4a254",
"bv c #e4a255",
"f0 c #e4a355",
"bg c #e4a357",
"bh c #e4a358",
"dX c #e4a458",
"aj c #e4a459",
"fL c #e4a45a",
"#N c #e4ad6f",
"eq c #e4ae70",
"bC c #e5a356",
"bj c #e5a458",
"bt c #e5a459",
"fX c #e5a558",
"dL c #e5a55a",
"fR c #e5a65b",
"be c #e5a65c",
"bG c #e6a354",
".W c #e6a456",
"#C c #e6a558",
"by c #e6a65a",
"fD c #e6a65b",
"gK c #e6af6f",
"bT c #e7a455",
"dJ c #e7a557",
"eW c #e7a657",
"bk c #e7a658",
"bn c #e7a75c",
"dS c #e7a85c",
"d2 c #e7a85d",
"eI c #e7b070",
"gk c #e7b171",
"cq c #e7b174",
"fN c #e7b272",
"gc c #e8a556",
"d5 c #e8a557",
".J c #e8a657",
"g. c #e8a759",
"bM c #e8a75a",
"bw c #e8a85c",
"dY c #e8a95f",
"ce c #e8b171",
"cR c #e9a657",
"bN c #e9a758",
"ed c #e9a859",
"cJ c #e9a85b",
"el c #e9b272",
".R c #e9b372",
"gR c #eaa757",
".z c #eaa758",
".n c #eaa858",
".m c #eaa859",
".Q c #eaa85a",
"fV c #eab372",
"#D c #eab373",
"dO c #eab577",
".l c #eba859",
".y c #eba959",
"d9 c #eba95a",
".k c #eba95b",
".v c #ebaa5b",
".g c #ebaa5c",
"f9 c #ebaa5d",
"fQ c #ebb473",
".A c #eca959",
"gz c #ecaa5a",
".t c #ecab5c",
".a c #ecad60",
"bs c #ecb472",
"dZ c #ecb573",
"fE c #ecb575",
"fJ c #ecb677",
"ec c #edac5d",
"ep c #edac5e",
"cp c #edad60",
"bf c #edb572",
"dU c #edb777",
"bE c #eeac5c",
"gj c #eead5e",
"bi c #eeb673",
"bx c #eeb674",
"dM c #eeb876",
".h c #f0b061",
"d1 c #f0ba77",
"fK c #f0bb7a",
"bp c #f0bd7e",
".s c #f1af5e",
".x c #f1b162",
"bq c #f1bc7c",
".e c #f2b262",
".o c #f2b263",
"dT c #f2bc7b",
"Qt c #f3b363",
"bd c #f3bb79",
".u c #f4bc77",
".f c #f5bd78",
"bc c #f5c17f",
".j c #f6bf7b",
".# c #f9c17b",
".w c #fac37d",
".i c #fcc580",
"QtQt.#.#.a.a.b.b.c.c.d.d.e.e.f.f.g.g.h.h.i.i.j.j.k.k.l.l.m.m.n.n.g.g.f.f.o.o.p.p.q.q.r.r.s.s.t.t.u.u.g.g.v.v.w.w.x.x.y.y.z.z.A.A",
"QtQt.#.#.a.a.b.b.c.c.d.d.e.e.f.f.g.g.h.h.i.i.j.j.k.k.l.l.m.m.n.n.g.g.f.f.o.o.p.p.q.q.r.r.s.s.t.t.u.u.g.g.v.v.w.w.x.x.y.y.z.z.A.A",
".A.A.B.B.C.C.D.D.E.E.F.F.G.G.H.H.I.I.J.J.J.J.K.K.L.L.M.M.N.N.O.O.P.P.K.K.Q.Q.R.R.S.S.T.T.U.U.H.H.V.V.P.P.H.H.W.W.X.X.Y.Y.Z.Z.0.0",
".A.A.B.B.C.C.D.D.E.E.F.F.G.G.H.H.I.I.J.J.J.J.K.K.L.L.M.M.N.N.O.O.P.P.K.K.Q.Q.R.R.S.S.T.T.U.U.H.H.V.V.P.P.H.H.W.W.X.X.Y.Y.Z.Z.0.0",
".1.1.2.2.3.3.4.4.5.5.6.6.7.7.8.8.O.O.N.N.9.9#.#.#####a#a#b#b.K.K#c#c#d#d#e#e#f#f#g#g#h#h#i#i#j#j#k#k#l#l#c#c#m#m#n#n#n#n#o#o.K.K",
".1.1.2.2.3.3.4.4.5.5.6.6.7.7.8.8.O.O.N.N.9.9#.#.#####a#a#b#b.K.K#c#c#d#d#e#e#f#f#g#g#h#h#i#i#j#j#k#k#l#l#c#c#m#m#n#n#n#n#o#o.K.K",
"#p#p#q#q#r#r#s#s#t#t#u#u#c#c#c#c#c#c#v#v#w#w#x#x#y#y#z#z#A#A#B#B#n#n.7.7#C#C#D#D#E#E#F#F#G#G#H#H#I#I#j#j#a#a#o#o#J#J#z#z.P.P.P.P",
"#p#p#q#q#r#r#s#s#t#t#u#u#c#c#c#c#c#c#v#v#w#w#x#x#y#y#z#z#A#A#B#B#n#n.7.7#C#C#D#D#E#E#F#F#G#G#H#H#I#I#j#j#a#a#o#o#J#J#z#z.P.P.P.P",
"#K#K#L#L#M#M#N#N#O#O#P#P#Q#Q#R#R#S#S#T#T#U#U#c#c#V#V#W#W#X#X#Y#Y#Z#Z#0#0#e#e#1#1.5.5#2#2#3#3#4#4.B.B#A#A.N.N#y#y#5#5#c#c#6#6#I#I",
"#K#K#L#L#M#M#N#N#O#O#P#P#Q#Q#R#R#S#S#T#T#U#U#c#c#V#V#W#W#X#X#Y#Y#Z#Z#0#0#e#e#1#1.5.5#2#2#3#3#4#4.B.B#A#A.N.N#y#y#5#5#c#c#6#6#I#I",
"#7#7#V#V#8#8#9#9a.a.a#a#aaaaababacacadadaeaeafafagag#V#V#x#x#V#Vahahaiaiajajakakalalamamaaaaananaoaoacacapapaqaqararagag#3#3asas",
"#7#7#V#V#8#8#9#9a.a.a#a#aaaaababacacadadaeaeafafagag#V#V#x#x#V#Vahahaiaiajajakakalalamamaaaaananaoaoacacapapaqaqararagag#3#3asas",
"atatauauavavawawaxaxayayazazaAaAaBaBatataCaCaDaDaEaEatataFaFaGaGaHaHaIaIaJaJaKaKaLaLaMaMaNaNaOaOauauaPaPaQaQaRaRaCaCaQaQaQaQaSaS",
"atatauauavavawawaxaxayayazazaAaAaBaBatataCaCaDaDaEaEatataFaFaGaGaHaHaIaIaJaJaKaKaLaLaMaMaNaNaOaOauauaPaPaQaQaRaRaCaCaQaQaQaQaSaS",
"aTaTaUaUaVaVaWaWaXaXaYaYaZaZa0a0a1a1a0a0a2a2a3a3a4a4a5a5a6a6a7a7a8a8a9a9a0a0aWaWb.b.a4a4a1a1a0a0b#b#babaa2a2a3a3bbbba0a0a0a0a0a0",
"aTaTaUaUaVaVaWaWaXaXaYaYaZaZa0a0a1a1a0a0a2a2a3a3a4a4a5a5a6a6a7a7a8a8a9a9a0a0aWaWb.b.a4a4a1a1a0a0b#b#babaa2a2a3a3bbbba0a0a0a0a0a0",
"bcbcbdbdbebebfbfbgbgbhbhbibibjbjbkbk.W.WblblbbbbbmbmbnbnbobobpbpbqbqbrbrbgbgbsbsbtbtbububvbvbwbwbxbxbybybzbzbAbAbBbBbCbCbvbvbDbD",
"bcbcbdbdbebebfbfbgbgbhbhbibibjbjbkbk.W.WblblbbbbbmbmbnbnbobobpbpbqbqbrbrbgbgbsbsbtbtbububvbvbwbwbxbxbybybzbzbAbAbBbBbCbCbvbvbDbD",
"bEbE.J.J.K.K.H.H#W#WbFbF#0#0#v#vbGbGbHbH.U.UbIbIbJbJbKbKbLbLbMbMbNbNbObO.0.0bPbPbQbQbRbRbSbSbTbTbUbUbVbVbWbWbXbXbYbY#Z#ZbZbZb0b0",
"bEbE.J.J.K.K.H.H#W#WbFbF#0#0#v#vbGbGbHbH.U.UbIbIbJbJbKbKbLbLbMbMbNbNbObO.0.0bPbPbQbQbRbRbSbSbTbTbUbUbVbVbWbWbXbXbYbY#Z#ZbZbZb0b0",
"b1b1.L.L.N.Nb2b2b3b3#o#ob4b4b5b5#z#zb6b6b7b7b8b8b9b9c.c..Y.Y#y#y.L.L#c#c#U#Uc#c#cacacbcbcccc.P.P#l#lcdcdcececfcfcgcgchchcicicjcj",
"b1b1.L.L.N.Nb2b2b3b3#o#ob4b4b5b5#z#zb6b6b7b7b8b8b9b9c.c..Y.Y#y#y.L.L#c#c#U#Uc#c#cacacbcbcccc.P.P#l#lcdcdcececfcfcgcgchchcicicjcj",
".H.HckckbFbFclclcmcmcncn#x#xcoco.0.0cpcpcqcqcrcrcscsctctcucucvcv#G#G#a#acwcw.P.Padadcxcxcycyczcz.N.N#H#HcAcA#g#gcBcBcCcCcDcDcEcE",
".H.HckckbFbFclclcmcmcncn#x#xcoco.0.0cpcpcqcqcrcrcscsctctcucucvcv#G#G#a#acwcw.P.Padadcxcxcycyczcz.N.N#H#HcAcA#g#gcBcBcCcCcDcDcEcE",
"cococFcFcGcGcHcH.Z.Z.O.O#5#5cucucIcIcJcJcKcKcLcLcMcM#V#VaeaecNcN.7.7cwcwcOcO.N.N#5#5cPcP#V#VcQcQ#.#.cRcRcScSa.a.cTcTcUcUcVcVclcl",
"cococFcFcGcGcHcH.Z.Z.O.O#5#5cucucIcIcJcJcKcKcLcLcMcM#V#VaeaecNcN.7.7cwcwcOcO.N.N#5#5cPcP#V#VcQcQ#.#.cRcRcScSa.a.cTcTcUcUcVcVclcl",
"#x#x#Q#QcWcWcXcXckckcYcYcZcZc0c0c1c1c2c2c3c3c4c4c5c5c6c6agagccccc7c7c8c8aeaecZcZcZcZaeaec9c9arar.1.1#m#md.d.d#d#dadadbdbdcdcdddd",
"#x#x#Q#QcWcWcXcXckckcYcYcZcZc0c0c1c1c2c2c3c3c4c4c5c5c6c6agagccccc7c7c8c8aeaecZcZcZcZaeaec9c9arar.1.1#m#md.d.d#d#dadadbdbdcdcdddd",
"dededfdfaRaRaQaQdgdgdhdhdididjdjdkdkdldldmdmdndndododpdpdqdqdhdhaPaPdrdr#2#2drdrdhdhdsdsaFaFdhdhatatdtdtdududvdvdwdwaEaEdxdxdydy",
"dededfdfaRaRaQaQdgdgdhdhdididjdjdkdkdldldmdmdndndododpdpdqdqdhdhaPaPdrdr#2#2drdrdhdhdsdsaFaFdhdhatatdtdtdududvdvdwdwaEaEdxdxdydy",
"a5a5dzdza3a3aXaXbAbAdAdAdBdBdCdCdDdDa6a6baba#g#gbbbbaXaXdAdAdEdEbAbAdFdFa3a3dGdGbAbAdAdAdAdAbAbAdEdEa5a5dHdH#g#gaXaXdIdIbbbba1a1",
"a5a5dzdza3a3aXaXbAbAdAdAdBdBdCdCdDdDa6a6baba#g#gbbbbaXaXdAdAdEdEbAbAdFdFa3a3dGdGbAbAdAdAdAdAbAbAdEdEa5a5dHdH#g#gaXaXdIdIbbbba1a1",
"dJdJbmbmbbbbdKdKdLdLdMdMdNdNdOdObWbWdPdPcHcHdQdQdRdRdSdSdTdTdUdUbjbjdVdVbbbbdWdWdXdXdTdTdTdTdYdYdZdZd0d0asasbDbDbhbhd1d1d2d2bvbv",
"dJdJbmbmbbbbdKdKdLdLdMdMdNdNdOdObWbWdPdPcHcHdQdQdRdRdSdSdTdTdUdUbjbjdVdVbbbbdWdWdXdXdTdTdTdTdYdYdZdZd0d0asasbDbDbhbhd1d1d2d2bvbv",
".L.Ld3d3bIbId4d4bUbUd5d5cdcdd6d6d7d7d8d8b3b3b3b3.L.L.n.nd9d9bFbFe.e.e#e#eaeaebeb.K.K#C#Cecec.l.lbFbF.0.0.H.H.0.0#v#veded.m.meeee",
".L.Ld3d3bIbId4d4bUbUd5d5cdcdd6d6d7d7d8d8b3b3b3b3.L.L.n.nd9d9bFbFe.e.e#e#eaeaebeb.K.K#C#Cecec.l.lbFbF.0.0.H.H.0.0#v#veded.m.meeee",
"efefegegeheheieiaqaq#I#I.K.Kejejb3b3#o#o#n#nekek#x#x#I#I.N.N#j#jededelelb8b8cgcg#Q#Q#w#wememenenejej#l#l.N.N#j#jeoeocIcIcPcP.P.P",
"efefegegeheheieiaqaq#I#I.K.Kejejb3b3#o#o#n#nekek#x#x#I#I.N.N#j#jededelelb8b8cgcg#Q#Q#w#wememenenejej#l#l.N.N#j#jeoeocIcIcPcP.P.P",
"epepeqeq#O#O#F#Ferereses.B.B#m#metet#x#x#l#l.8.8#.#.eueub0b0eoeo#8#8e#e#evevewewafafexexeyeyezezclcleAeAc8c8#z#zcoco.N.N.N.N.P.P",
"epepeqeq#O#O#F#Ferereses.B.B#m#metet#x#x#l#l.8.8#.#.eueub0b0eoeo#8#8e#e#evevewewafafexexeyeyezezclcleAeAc8c8#z#zcoco.N.N.N.N.P.P",
"eBeBeCeCbIbIeDeD#V#VeEeEeFeF.G.Gcvcv.H.H.P.P#5#5#j#jeGeGacac.P.PeHeHeIeIeJeJeKeKaoaoeLeLeMeMeNeN.B.B.X.XeOeO#j#j.K.K#j#j.N.N#y#y",
"eBeBeCeCbIbIeDeD#V#VeEeEeFeF.G.Gcvcv.H.H.P.P#5#5#j#jeGeGacac.P.PeHeHeIeIeJeJeKeKaoaoeLeLeMeMeNeN.B.B.X.XeOeO#j#j.K.K#j#j.N.N#y#y",
"bSbSePePbIbIeQeQ.9.9eReReSeSeTeTeUeUcxcxeVeV#V#V#j#jeSeSeUeUememeWeWeXeXa.a.eYeYeZeZe0e0e1e1#V#Ve2e2e3e3eSeSe4e4e5e5e6e6e7e7#z#z",
"bSbSePePbIbIeQeQ.9.9eReReSeSeTeTeUeUcxcxeVeV#V#V#j#jeSeSeUeUememeWeWeXeXa.a.eYeYeZeZe0e0e1e1#V#Ve2e2e3e3eSeSe4e4e5e5e6e6e7e7#z#z",
"e8e8e9e9f.f.f#f#fafafbfbdidifcfcdrdrfdfdaPaPaRaRdhdhdededidiaSaSfefefffffgfgfhfhfififjfjdididgdgdrdrfkfkflfldgdgfmfmdrdrfnfndhdh",
"e8e8e9e9f.f.f#f#fafafbfbdidifcfcdrdrfdfdaPaPaRaRdhdhdededidiaSaSfefefffffgfgfhfhfififjfjdididgdgdrdrfkfkflfldgdgfmfmdrdrfnfndhdh",
"dDdDfofofpfp#g#gfqfqfrfrb.b.bXbXdzdzfsfsftftftftb.b.frfrfufudGdGdGdGfvfvfwfwfxfxfyfy#g#gdGdGbbbb#g#gfzfz#g#gdGdGfAfAfufufBfBdGdG",
"dDdDfofofpfp#g#gfqfqfrfrb.b.bXbXdzdzfsfsftftftftb.b.frfrfufudGdGdGdGfvfvfwfwfxfxfyfy#g#gdGdGbbbb#g#gfzfz#g#gdGdGfAfAfufufBfBdGdG",
"eLeLfCfCdRdRfDfDdUdUfEfEcScSbDbDfFfFaXaXfGfGfHfHfIfIfJfJfKfKfLfLfMfMfNfNfOfOfPfPfQfQfRfR.X.XbDbDfSfSb.b.fTfTbjbjfUfUfVfVfWfWfXfX",
"eLeLfCfCdRdRfDfDdUdUfEfEcScSbDbDfFfFaXaXfGfGfHfHfIfIfJfJfKfKfLfLfMfMfNfNfOfOfPfPfQfQfRfR.X.XbDbDfSfSb.b.fTfTbjbjfUfUfVfVfWfWfXfX",
"fYfY.0.0fZfZf0f0f1f1f2f2#W#Wf3f3f4f4f5f5f6f6f7f7eAeAf8f8f9f9g.g.bLbLg#g#gagad8d8gbgbgcgc#I#Ieeeed.d.d#d#gdgdbvbvgegegfgf#I#I.A.A",
"fYfY.0.0fZfZf0f0f1f1f2f2#W#Wf3f3f4f4f5f5f6f6f7f7eAeAf8f8f9f9g.g.bLbLg#g#gagad8d8gbgbgcgc#I#Ieeeed.d.d#d#gdgdbvbvgegegfgf#I#I.A.A",
"#j#jggggc8c8ghghgigi.P.P#U#Ugjgjgkgkglglgmgmadadb3b3gngngogogpgpgqgqctctadadgigigrgr#x#x.N.N#W#Wgsgsgtgtgugugvgvgwgw#.#.#k#k.0.0",
"#j#jggggc8c8ghghgigi.P.P#U#Ugjgjgkgkglglgmgmadadb3b3gngngogogpgpgqgqctctadadgigigrgr#x#x.N.N#W#Wgsgsgtgtgugugvgvgwgw#.#.#k#k.0.0",
"gxgxgygy.0.0#d#dgrgr#j#j.I.IgzgzgAgAbIbIgBgB#G#Gc.c.gCgCcCcCgDgDgEgEgFgF#d#dgGgG#V#V.N.NcucueHeHfVfVgHgHaQaQb5b5gIgIc8c8#6#6gJgJ",
"gxgxgygy.0.0#d#dgrgr#j#j.I.IgzgzgAgAbIbIgBgB#G#Gc.c.gCgCcCcCgDgDgEgEgFgF#d#dgGgG#V#V.N.NcucueHeHfVfVgHgHaQaQb5b5gIgIc8c8#6#6gJgJ",
".N.N#U#U.N.N#j#jadad.O.OcucueHeHgKgK#O#OgLgLgMgMgNgNgOgOgPgPgQgQ#z#z.8.8.N.N#z#z.H.Hcwcw#U#UgRgRd0d0.5.5gSgSgTgT#V#VcbcbgUgUgVgV",
".N.N#U#U.N.N#j#jadad.O.OcucueHeHgKgK#O#OgLgLgMgMgNgNgOgOgPgPgQgQ#z#z.8.8.N.N#z#z.H.Hcwcw#U#UgRgRd0d0.5.5gSgSgTgT#V#VcbcbgUgUgVgV",
"cncncocoaeaeereracacgWgWgXgX.K.KcAcAehehgYgYgZgZg0g0g1g1g2g2g3g3eReR#z#zg4g4apapg5g5e6e6#d#d.L.Ld.d.ftftg6g6g7g7e2e2g8g8g0g0g9g9",
"cncncocoaeaeereracacgWgWgXgX.K.KcAcAehehgYgYgZgZg0g0g1g1g2g2g3g3eReR#z#zg4g4apapg5g5e6e6#d#d.L.Ld.d.ftftg6g6g7g7e2e2g8g8g0g0g9g9",
"h.h.h#h#h#h#hahahbhbhchchchchdhdhehehfhfhghghhhhhihihjhjamamewewhkhkhlhlh#h#hmhmhnhnhahahchchohohphphqhqhrhrdxdxhshshththuhuhvhv",
"h.h.h#h#h#h#hahahbhbhchchchchdhdhehehfhfhghghhhhhihihjhjamamewewhkhkhlhlh#h#hmhmhnhnhahahchchohohphphqhqhrhrdxdxhshshththuhuhvhv",
"hwhwhwhwhwhwhwhwhxhxhyhyhzhzhAhAhBhBhChChDhDhEhEhFhFhGhGhwhwhHhHhzhzhwhwhwhwhzhzhIhIhwhwhwhwhwhwhJhJhKhKhGhGhLhLhMhMhNhNhOhOhwhw",
"hwhwhwhwhwhwhwhwhxhxhyhyhzhzhAhAhBhBhChChDhDhEhEhFhFhGhGhwhwhHhHhzhzhwhwhwhwhzhzhIhIhwhwhwhwhwhwhJhJhKhKhGhGhLhLhMhMhNhNhOhOhwhw"};
