/* XPM */
static char *dummy[]={
"64 64 2 1",
". c #564033",
"# c #6d452c",
"................................................................",
".##############################..##############################.",
".##############################..##############################.",
".##############################..##############################.",
".###.....................######..######.....................###.",
".###.###################.######..######.###################.###.",
".###.#.................#.######..######.#.................#.###.",
".###.#.###############.#.######..######.#.###############.#.###.",
".###.#.###############.#.######..######.#.###############.#.###.",
".###.#.###############.#.######..######.#.###############.#.###.",
".###.#.###############.#.######..######.#.###############.#.###.",
".###.#.###........####.#.######..######.#.####........###.#.###.",
".###.#.###.######.####.#.######..######.#.####.######.###.#.###.",
".###.#.###.######.####.#.######..######.#.####.######.###.#.###.",
".###.#.###.######.####.#.######..######.#.####.######.###.#.###.",
".###.#.###.######.####.#.######..######.#.####.######.###.#.###.",
".###.#.###.######.####.#.######..######.#.####.######.###.#.###.",
".###.#.###.######.####.#.######..######.#.####.######.###.#.###.",
".###.#.###.######.####.#.######..######.#.####.######.###.#.###.",
".###.#.###.######.####.#.######..######.#.####.######.###.#.###.",
".###.#.###.######.####.#.######..######.#.####.######.###.#.###.",
".###.#.###.######.####.#.######..######.#.####.######.###.#.###.",
".###.#.###.######.####.#.######..######.#.####.######.###.#.###.",
".###.#.###.######.####.#.######..######.#.####.######.###.#.###.",
".###.#.###.######.####.#.######..######.#.####.######.###.#.###.",
".###.#.###.######.####.#.######..######.#.####.######.###.#.###.",
".###.#.###.######.####.#.######..######.#.####.######.###.#.###.",
".###.#.###.######.####.#.######..######.#.####.######.###.#.###.",
".###.#.###.######.####.#.######..######.#.####.######.###.#.###.",
".###.#.###.######.####.#.#...##..##...#.#.####.######.###.#.###.",
".###.#.###.######.####.#.#...##..##...#.#.####.######.###.#.###.",
".###.#.###.######.####.#.#...##..##...#.#.####.######.###.#.###.",
".###.#.###.######.####.#.#...##..##...#.#.####.######.###.#.###.",
".###.#.###.######.####.#.#...##..##...#.#.####.######.###.#.###.",
".###.#.###.######.####.#.#...##..##...#.#.####.######.###.#.###.",
".###.#.###.######.####.#.#...##..##...#.#.####.######.###.#.###.",
".###.#.###.######.####.#.#...##..##...#.#.####.######.###.#.###.",
".###.#.###.######.####.#.#...##..##...#.#.####.######.###.#.###.",
".###.#.###.######.####.#.#...##..##...#.#.####.######.###.#.###.",
".###.#.###.######.####.#.#...##..##...#.#.####.######.###.#.###.",
".###.#.###.######.####.#.#...##..##...#.#.####.######.###.#.###.",
".###.#.###.######.####.#.#...##..##...#.#.####.######.###.#.###.",
".###.#.###.######.####.#.#...##..##...#.#.####.######.###.#.###.",
".###.#.###.######.####.#.######..######.#.####.######.###.#.###.",
".###.#.###.######.####.#.######..######.#.####.######.###.#.###.",
".###.#.###.######.####.#.######..######.#.####.######.###.#.###.",
".###.#.###.######.####.#.######..######.#.####.######.###.#.###.",
".###.#.###.######.####.#.######..######.#.####.######.###.#.###.",
".###.#.###.######.####.#.######..######.#.####.######.###.#.###.",
".###.#.###.######.####.#.######..######.#.####.######.###.#.###.",
".###.#.###.######.####.#.######..######.#.####.######.###.#.###.",
".###.#.###.######.####.#.######..######.#.####.######.###.#.###.",
".###.#.###.######.####.#.######..######.#.####.######.###.#.###.",
".###.#.###.######.####.#.######..######.#.####.######.###.#.###.",
".###.#.###.######.####.#.######..######.#.####.######.###.#.###.",
".###.#.###........####.#.######..######.#.####........###.#.###.",
".###.#.###############.#.######..######.#.###############.#.###.",
".###.#.###############.#.######..######.#.###############.#.###.",
".###.#.###############.#.######..######.#.###############.#.###.",
".###.#.................#.######..######.#.................#.###.",
".###.###################.######..######.###################.###.",
".###.....................######..######.....................###.",
".##############################..##############################.",
"................................................................"};
