/* XPM */
static char *dummy[]={
"65 64 157 2",
".h c #d267da",
".k c #d268db",
"Qt c #d268dc",
".E c #d365d5",
".O c #d365d6",
".e c #d366d7",
".7 c #d366d8",
".s c #d366d9",
".S c #d367d9",
"#v c #d462d0",
"#i c #d463d1",
".j c #d463d2",
".z c #d464d3",
".m c #d464d4",
"#H c #d560cc",
".w c #d561cd",
".N c #d562cf",
"al c #d65ec6",
"ax c #d65ec7",
".b c #d65fc8",
".Z c #d65fc9",
".I c #d65fca",
".5 c #d660cb",
"#P c #d75bc1",
"af c #d75cc2",
".6 c #d75cc3",
".W c #d75dc4",
"#8 c #d75dc5",
"#E c #d75dc6",
".L c #d859bd",
"#. c #d85abf",
"#Z c #d85bc0",
".P c #d957b8",
"#w c #d957b9",
"#S c #d958b9",
"#h c #d958ba",
"aA c #d959bb",
"#f c #d959bc",
".# c #da54b3",
"#Y c #da55b3",
".y c #da56b5",
"#k c #da56b6",
"#g c #da56b7",
".Q c #db53af",
"#2 c #db53b0",
".o c #db54b1",
"aa c #dc50aa",
".q c #dc51ab",
".n c #dc51ac",
"#p c #dc52ad",
".4 c #dd4da4",
"#t c #dd4ea5",
".3 c #dd4fa7",
".f c #de4ca0",
".U c #de4ca1",
"#u c #de4da2",
"as c #de4da3",
"ab c #df499a",
"aq c #df499b",
"#9 c #df4a9c",
".V c #df4a9d",
"#7 c #df4b9e",
".0 c #df4b9f",
".2 c #e04795",
"#C c #e04796",
"aw c #e04797",
"#R c #e0499a",
".x c #e14592",
".R c #e14593",
"#N c #e14694",
"#J c #e2428d",
"#5 c #e2438d",
"#b c #e2438e",
"a. c #e2448f",
".K c #e24490",
".F c #e34087",
"#L c #e34189",
"#0 c #e3418a",
"ag c #e3428b",
"#r c #e43e82",
"#q c #e43e84",
"#K c #e43f85",
".9 c #e43f86",
".C c #e53b7d",
"aj c #e53c7e",
"#o c #e53d81",
"#m c #e63978",
".t c #e63979",
"#Q c #e63a7a",
".i c #e63a7b",
"az c #e63b7c",
".u c #e73774",
"av c #e73775",
"#e c #e73876",
"#z c #e73877",
"#G c #e8346e",
".A c #e8356f",
"#U c #e83570",
"ay c #e83571",
"#A c #e83672",
"#s c #e93269",
"an c #e9336b",
".v c #e9336c",
"#V c #ea3065",
".G c #ea3167",
".B c #ea3168",
"#D c #eb2d60",
"#1 c #eb2e61",
"#a c #eb2e62",
".J c #eb2f64",
".a c #ec2b5b",
"ah c #ec2c5c",
".c c #ec2d5f",
".1 c #ed2957",
"ae c #ed2a58",
"#O c #ed2a59",
"#X c #ed2a5a",
"#F c #ee2651",
".g c #ee2752",
"#6 c #ee2753",
"#B c #ee2854",
"ar c #ee2855",
"#l c #ef244c",
"#W c #ef244d",
"#T c #ef254e",
".8 c #ef254f",
".D c #ef264f",
".T c #ef2650",
"au c #f02248",
".H c #f02349",
"ak c #f0234a",
".r c #f0234b",
".p c #f11f42",
"#n c #f12043",
"## c #f12044",
"#I c #f12145",
".Y c #f12146",
"am c #f12147",
".X c #f21d3d",
"#M c #f21d3e",
".d c #f21e3f",
"#y c #f21e40",
"a# c #f21f41",
"#4 c #f21f42",
"ao c #f31b39",
".M c #f31b3a",
"#x c #f31c3b",
"#c c #f31c3c",
"ad c #f31d3c",
"ap c #f41a36",
"#d c #f41a37",
"#3 c #f41b38",
"ac c #f6142a",
".l c #f6152c",
"at c #f71429",
"#j c #f80f21",
"ai c #f90e1d",
"QtQtQtQtQtQtQtQtQtQtQtQtQtQtQtQt.#.aQt.b.cQtQtQtQtQtQtQtQtQtQtQtQt.d.eQtQt.f.g.h.i.jQtQtQtQtQtQtQtQtQtQtQtQtQtQtQtQtQtQtQtQtQtQtQt",
"QtQtQtQtQtQtQtQtQtQtQtQtQtQtQtQt.k.l.mQtQt.n.oQtQtQtQtQtQtQtQtQt.h.pQtQt.q.r.s.t.uQtQtQtQtQtQtQtQtQtQtQtQtQtQtQtQtQtQtQtQtQtQtQtQt",
"QtQtQtQtQtQtQtQtQtQtQtQtQtQt.v.wQt.u.xQt.y.p.zQtQtQtQtQtQtQtQtQtQt.A.B.C.D.E.F.GQtQtQtQtQtQtQtQtQtQtQtQtQtQtQtQtQtQtQtQtQtQtQtQtQt",
"QtQtQtQtQtQtQtQtQtQtQtQtQtQt.f.H.I.J.K.L.M.NQtQt.OQtQtQtQtQtQtQtQtQt.P.Q.k.R.aQtQtQt.S.T.UQtQtQtQtQtQtQtQtQtQtQtQtQtQtQtQtQtQtQtQt",
"QtQtQtQtQtQtQtQtQtQtQtQtQtQtQt.V.r.t.W.X.Y.VQt.Z.d.OQtQtQtQtQtQtQtQtQtQt.0.T.hQtQt.k.1.2.r.3QtQtQtQtQtQtQtQtQtQtQtQtQtQtQtQtQtQtQt",
"QtQtQtQtQtQt.j.4.wQtQtQtQtQtQtQtQt.5.X.6.7.8.9.d#.QtQtQtQtQtQtQtQtQtQtQt.V##.zQtQt#a#bQt.z#cQtQtQtQtQtQtQtQtQtQtQtQtQtQtQtQtQtQtQt",
"QtQtQtQtQtQt#d#e.M#fQtQtQtQtQtQtQt#g#hQtQt#i#j#k#..a#l#mQtQtQtQtQtQtQtQtQt.3#nQt.A#oQtQtQt.MQtQtQtQtQtQtQtQtQtQtQtQtQtQtQtQtQtQtQt",
"QtQtQtQtQt.#.aQt.b.cQtQtQtQtQtQtQtQtQtQt.O.Y#p.n.p.WQt#q#mQtQtQtQtQtQtQtQtQt.j#r#sQtQtQt#t.cQtQtQtQtQtQtQtQtQtQtQtQtQtQtQtQtQtQtQt",
"QtQtQtQtQt.k.l.mQtQt.n.oQtQtQtQtQtQtQtQt.B#u.O#d#vQtQtQt#cQtQtQtQtQtQtQtQtQtQt#w#x#wQt#u#y.zQtQt#.#zQtQtQtQtQtQtQtQtQtQtQtQtQtQtQt",
"QtQtQt.v.wQt.u.xQt.y.p.zQtQtQtQtQtQtQtQt.hQt.f#AQtQtQt#h#BQt#CQtQtQtQtQtQtQtQtQt.Z#D.8#e.OQtQt#E.M#FQtQtQtQtQtQtQtQtQtQtQtQtQtQtQt",
"QtQtQt.f.H.I.J.K.L.M.NQtQt.OQtQtQtQtQtQtQtQt#t#GQtQt.E.d#f.F.JQtQtQtQtQtQtQtQtQtQtQtQtQtQtQt#H#I#J#KQtQtQtQtQtQtQtQtQtQtQtQtQtQtQt",
"QtQtQtQt.V.r.t.W.X.Y.VQt.Z.d.OQtQtQtQtQtQtQt.k.r.i#L#M.3#N#OQtQtQt.sQtQtQtQtQtQtQtQtQtQtQt#i.Y#P#G#wQt#Q.2QtQtQtQtQtQtQtQtQtQtQtQt",
"QtQtQtQtQtQt.5.X.6.7.8.9.d#.QtQtQtQtQtQtQtQtQt.k.f#R.z#t.D.hQtQt#C#AQtQtQtQtQtQtQtQtQtQt.E.H#SQt#TQt.F#UQtQtQtQtQtQtQtQtQtQtQtQtQt",
"QtQtQtQtQtQt#g#hQtQt#i#j#k#..a#l#mQtQtQtQtQtQtQtQtQtQt.d.eQtQt.f.g.h.i.jQtQtQtQtQtQtQtQt.O#hQt.h.T#N#V.k.F#W#X.6QtQtQtQtQtQtQtQtQt",
"QtQtQtQtQtQtQtQtQt.O.Y#p.n.p.WQt#q#mQtQtQtQtQtQtQtQt.h.pQtQt.q.r.s.t.uQtQtQtQtQtQtQtQtQtQtQtQt#Y#c.a.S.8#L.S#Z#x.7QtQtQtQtQtQtQtQt",
"QtQtQtQtQtQtQtQtQt.B#u.O#d#vQtQtQt#cQtQtQtQtQtQtQtQtQt.A.B.C.D.E.F.GQtQtQtQtQtQtQtQtQtQtQtQtQt#C.H.h#z#0QtQtQt#1.yQtQtQtQtQtQtQtQt",
"QtQtQtQtQtQtQtQtQt.hQt.f#AQtQtQt#h#BQt#CQtQtQtQtQtQtQtQt.P.Q.k.R.aQtQtQt.S.T.UQtQtQtQtQtQtQtQtQt.SQt.M.kQtQtQt.p.N.i#2QtQtQtQtQtQt",
".n.oQtQtQtQtQtQtQtQtQt#t#GQtQt.E.d#f.F.JQtQtQtQtQtQtQtQtQtQt.0.T.hQtQt.k.1.2.r.3QtQtQtQtQtQtQtQtQtQt#3.SQtQt#N.GQt#i#4.3QtQtQtQtQt",
".p.zQtQtQtQtQtQtQtQtQt.k.r.i#L#M.3#N#OQtQtQt.sQtQtQtQtQtQtQt.V##.zQtQt#a#bQt.z#cQtQtQtQtQtQtQtQtQtQt#5#6#7#V.a.7Qt#8#M.H#9QtQtQtQt",
".NQtQt.OQtQtQtQtQtQtQtQt.k.f#R.z#t.D.hQtQt#C#AQtQtQtQtQtQtQtQt.3#nQt.A#oQtQtQt.MQtQtQtQtQtQtQtQtQtQtQt.P#L.yQtQt#H#M.6.sa.QtQtQtQt",
".VQt.Z.d.OQtQtQtQtQtQtQtQtQtQtQt.d.eQtQt.f.g.h.i.jQtQtQtQtQtQtQt.j#r#sQtQtQt#t.cQtQtQtQtQtQtQtQtQtQtQtQtQtQtQt#ia##fQtQtQtQtaaQtQt",
".8.9.d#.QtQtQtQtQtQtQtQtQtQtQt.h.pQtQt.q.r.s.t.uQtQtQtQtQtQtQtQtQt#w#x#wQt#u#y.zQtQt#.#zQtQtQtQtQtQtQtQtQtQt.E#I.#QtQtQtQt#p.gQtQt",
"#i#j#k#..a#l#mQtQtQtQtQtQtQtQtQt.A.B.C.D.E.F.GQtQtQtQtQtQtQtQtQtQtQt.Z#D.8#e.OQtQt#E.M#FQtQtQtQtQtQtQtQtQtQt#faaQtQtQtQtQta##EQt.S",
".Y#p.n.p.WQt#q#mQtQtQtQtQtQtQtQtQt.P.Q.k.R.aQtQtQt.S.T.UQtQtQtQtQtQtQtQtQtQtQtQt#H#I#J#KQtQtQtQtQtQtQtQtQtQtQtQtQtQtQtQtab#AQt.nac",
"#u.O#d#vQtQtQt#cQtQtQtQtQtQtQtQtQtQtQt.0.T.hQtQt.k.1.2.r.3QtQtQtQtQtQtQtQtQtQt#i.Y#P#G#wQt#Q.2QtQtQtQtQtQtQtQtQtQtQtQt.Sa#.b#V#zad",
"Qt.f#AQtQtQt#h#BQt#CQtQtQtQtQtQtQtQtQt.V##.zQtQt#a#bQt.z#cQtQtQtQtQtQtQtQtQt.E.H#SQt#TQt.F#UQtQtQtQtQtQtQtQtQtQtQtQtQt.9.raeafag#J",
"Qt#t#GQtQt.E.d#f.F.JQtQtQtQtQtQtQtQtQtQt.3#nQt.A#oQtQtQt.MQtQtQtQtQtQtQtQtQt.O#hQt.h.T#N#V.k.F#W#X.6QtQtQtQtQtQtQtQtQtah#NQt.s##.h",
"Qt.k.r.i#L#M.3#N#OQtQtQt.sQtQtQtQtQtQtQtQt.j#r#sQtQtQt#t.cQtQtQtQtQtQtQtQtQtQtQtQt#Y#c.a.S.8#L.S#Z#x.7QtQtQtQtQtQtQtQtQtQtQt#K#r#B",
"QtQt.k.f#R.z#t.D.hQtQt#C#AQtQtQtQtQtQtQtQtQt#w#x#wQt#u#y.zQtQt#.#zQtQtQtQtQtQtQtQt#C.H.h#z#0QtQtQt#1.yQtQtQtQtQtQtQtQtQtQt.eai.a.Z",
"QtQtQtQtQtQt.d.eQtQt.f.g.h.i.jQtQtQtQtQtQtQtQt.Z#D.8#e.OQtQt#E.M#FQtQtQtQtQtQtQtQtQt.SQt.M.kQtQtQt.p.N.i#2QtQtQtQtQtQtQtQt.h.qQtQt",
"QtQtQtQtQt.h.pQtQt.q.r.s.t.uQtQtQtQtQtQtQtQtQtQtQtQtQtQtQt#H#I#J#KQtQtQtQtQtQtQtQtQtQtQt#3.SQtQt#N.GQt#i#4.3QtQtQtQtQtQtQtQtQtQtQt",
"QtQtQtQtQtQt.A.B.C.D.E.F.GQtQtQtQtQtQtQtQtQtQtQtQtQtQtQt#i.Y#P#G#wQt#Q.2QtQtQtQtQtQtQtQt#5#6#7#V.a.7Qt#8#M.H#9QtQtQtQtQtQtQtQtQtQt",
"QtQtQtQtQtQtQt.P.Q.k.R.aQtQtQt.S.T.UQtQtQtQtQtQtQtQtQt.E.H#SQt#TQt.F#UQtQtQtQtQtQtQtQtQtQt.P#L.yQtQt#H#M.6.sa.QtQtQtQtQtQtQtQtQtQt",
"QtQtQtQtQtQtQtQtQt.0.T.hQtQt.k.1.2.r.3QtQtQtQtQtQtQtQt.O#hQt.h.T#N#V.k.F#W#X.6QtQtQtQtQtQtQtQtQtQt#ia##fQtQtQtQtaaQtQtQtQtQtQtQtQt",
"QtQtQtQtQtQtQtQtQt.V##.zQtQt#a#bQt.z#cQtQtQtQtQtQtQtQtQtQtQt#Y#c.a.S.8#L.S#Z#x.7QtQtQtQtQtQtQtQt.E#I.#QtQtQtQt#p.gQtQtQtQtQtQtQtQt",
"QtQtQtQtQtQtQtQtQtQt.3#nQt.A#oQtQtQt.MQtQtQtQtQtQtQtQtQtQtQt#C.H.h#z#0QtQtQt#1.yQtQtQtQtQtQtQtQt#faaQtQtQtQtQta##EQt.SQtQtQtQtQtQt",
".sQtQtQtQtQtQtQtQtQtQt.j#r#sQtQtQt#t.cQtQtQtQtQtQtQtQtQtQtQtQt.SQt.M.kQtQtQt.p.N.i#2QtQtQtQtQtQtQtQtQtQtQtQtab#AQt.nac.fQtQtQtQtQt",
"#AQtQtQtQtQtQtQtQtQtQtQt#w#x#wQt#u#y.zQtQt#.#zQtQtQtQtQtQtQtQtQtQt#3.SQtQt#N.GQt#i#4.3QtQtQtQtQtQtQtQtQtQt.Sa#.b#V#zad.7QtQtQtQtQt",
".h.i.jQtQtQtQtQtQtQtQtQtQt.Z#D.8#e.OQtQt#E.M#FQtQtQtQtQtQtQtQtQtQt#5#6#7#V.a.7Qt#8#M.H#9QtQtQtQtQtQtQtQtQt.9.raeafag#JQt.b#eQtQtQt",
".t.uQtQtQtQtQtQtQtQtQtQtQtQtQtQtQtQtQt#H#I#J#KQtQtQtQtQtQtQtQtQtQtQt.P#L.yQtQt#H#M.6.sa.QtQtQtQtQtQtQtQtQtah#NQt.s##.h#5.r#.QtQtQt",
".GQtQtQtQtQtQtQtQtQtQtQtQtQtQtQtQtQt#i.Y#P#G#wQt#Q.2QtQtQtQtQtQtQtQtQtQtQtQt#ia##fQtQtQtQtaaQtQtQtQtQtQtQtQtQtQt#K#r#B#L.sajak.aal",
"QtQtQt.S.T.UQtQtQtQtQtQtQtQtQtQtQt.E.H#SQt#TQt.F#UQtQtQtQtQtQtQtQtQtQtQtQt.E#I.#QtQtQtQt#p.gQtQtQtQtQtQtQtQtQt.eai.a.Z.eam.R.k.L.X",
"QtQt.k.1.2.r.3QtQtQtQtQtQtQtQtQtQt.O#hQt.h.T#N#V.k.F#W#X.6QtQtQtQtQtQtQtQt#faaQtQtQtQtQta##EQt.SQtQtQtQtQtQtQt.h.qQtQtan#NQtQtQtae",
"QtQt#a#bQt.z#cQtQtQtQtQtQtQtQtQtQtQtQtQt#Y#c.a.S.8#L.S#Z#x.7QtQtQtQtQtQtQtQtQtQtQtQtQtab#AQt.nac.fQtQtQtQtQtQtQtQtQtQtaoQtQtQtQt#c",
"Qt.A#oQtQtQt.MQtQtQtQtQtQtQtQtQtQtQtQtQt#C.H.h#z#0QtQtQt#1.yQtQtQtQtQtQtQtQtQtQtQtQt.Sa#.b#V#zad.7QtQtQtQtQtQtQtQtQtQtap.kQtQt.F#U",
"#r#sQtQtQt#t.cQtQtQtQtQtQtQtQtQtQtQtQtQtQt.SQt.M.kQtQtQt.p.N.i#2QtQtQtQtQtQtQtQtQtQt.9.raeafag#JQt.b#eQtQtQtQtQtQtQtQt#K.1aqah.J.e",
"#w#x#wQt#u#y.zQtQt#.#zQtQtQtQtQtQtQtQtQtQtQtQt#3.SQtQt#N.GQt#i#4.3QtQtQtQtQtQtQtQtQtah#NQt.s##.h#5.r#.QtQtQtQtQtQtQtQtQt#g#5#f.kar",
"Qt.Z#D.8#e.OQtQt#E.M#FQtQtQtQtQtQtQtQtQtQtQtQt#5#6#7#V.a.7Qt#8#M.H#9QtQtQtQtQtQtQtQtQtQtQt#K#r#B#L.sajak.aalQtQtQtQtQtQtQtQtQt#D#J",
"QtQtQtQtQtQtQt#H#I#J#KQtQtQtQtQtQtQtQtQtQtQtQtQt.P#L.yQtQt#H#M.6.sa.QtQtQtQtQtQtQtQtQtQt.eai.a.Z.eam.R.k.L.X.hQtQtQtQtQtQtQt#Z#oQt",
"QtQtQtQtQtQt#i.Y#P#G#wQt#Q.2QtQtQtQtQtQtQtQtQtQtQtQtQtQt#ia##fQtQtQtQtaaQtQtQtQtQtQtQtQt.h.qQtQtan#NQtQtQtae#ZQtQtQtQtQtQtQtQtQtQt",
"QtQtQtQtQt.E.H#SQt#TQt.F#UQtQtQtQtQtQtQtQtQtQtQtQtQtQt.E#I.#QtQtQtQt#p.gQtQtQtQtQtQtQtQtQtQtQtQtaoQtQtQtQt#c.E.z#wQtQtQtQtQtQtQtQt",
"QtQtQtQtQt.O#hQt.h.T#N#V.k.F#W#X.6QtQtQtQtQtQtQtQtQtQt#faaQtQtQtQtQta##EQt.SQtQtQtQtQtQtQtQtQtQtap.kQtQt.F#U.eam#c.nQtQtQtQtQtQtQt",
"QtQtQtQtQtQtQtQt#Y#c.a.S.8#L.S#Z#x.7QtQtQtQtQtQtQtQtQtQtQtQtQtQtQtab#AQt.nac.fQtQtQtQtQtQtQtQtQt#K.1aqah.J.e#Tas.zat.jQtQtQtQtQtQt",
"QtQtQtQtQtQtQtQt#C.H.h#z#0QtQtQt#1.yQtQtQtQtQtQtQtQtQtQtQtQtQtQt.Sa#.b#V#zad.7QtQtQtQtQtQtQtQtQtQt#g#5#f.karauQtQtao.WQtQtQtQtQtQt",
"QtQtQtQtQtQtQtQtQt.SQt.M.kQtQtQt.p.N.i#2QtQtQtQtQtQtQtQtQtQtQtQt.9.raeafag#JQt.b#eQtQtQtQtQtQtQtQtQtQtQt#D#J#rao#Fav.h#B.ZQtQtQtQt",
"QtQtQtQtQtQtQtQtQtQtQt#3.SQtQt#N.GQt#i#4.3QtQtQtQtQtQtQtQtQtQtQtah#NQt.s##.h#5.r#.QtQtQtQtQtQtQtQtQtQt#Z#oQt#Naj.NQt#XawQtQtQtQtQt",
"QtQtQtQtQtQtQtQtQtQtQt#5#6#7#V.a.7Qt#8#M.H#9QtQtQtQtQtQtQtQtQtQtQtQtQt#K#r#B#L.sajak.aalQtQtQtQtQtQtQtQtQtQt.TaxQt.J.Hav#O.T#7QtQt",
"QtQtQtQtQtQtQtQtQtQtQtQt.P#L.yQtQt#H#M.6.sa.QtQtQtQtQtQtQtQtQtQtQtQt.eai.a.Z.eam.R.k.L.X.hQtQtQtQtQtQtQtQtQtarQtayaz.MaA.OQtQtQtQt",
"QtQtQtQtQtQtQtQtQtQtQtQtQtQtQtQt#ia##fQtQtQtQtaaQtQtQtQtQtQtQtQtQtQt.h.qQtQtan#NQtQtQtae#ZQtQtQtQtQtQtQtQtQt.h#L#G#v.TQtQtQtQtQtQt",
"QtQtQtQtQtQtQtQtQtQtQtQtQtQtQt.E#I.#QtQtQtQt#p.gQtQtQtQtQtQtQtQtQtQtQtQtQtQtaoQtQtQtQt#c.E.z#wQtQtQtQtQtQtQtQt#vQt#w#VQtQtQtQtQtQt",
"QtQtQtQtQtQtQtQtQtQtQtQtQtQtQt#faaQtQtQtQtQta##EQt.SQtQtQtQtQtQtQtQtQtQtQtQtap.kQtQt.F#U.eam#c.nQtQtQtQtQtQtQtQtQt#u#QQtQtQtQtQtQt",
"QtQtQtQtQtQtQtQtQtQtQtQtQtQtQtQtQtQtQtQtQtab#AQt.nac.fQtQtQtQtQtQtQtQtQtQtQt#K.1aqah.J.e#Tas.zat.jQtQtQtQtQtQtQtQt.zQtQtQtQtQtQtQt",
"QtQtQtQtQtQtQtQtQtQtQtQtQtQtQtQtQtQtQtQt.Sa#.b#V#zad.7QtQtQtQtQtQtQtQtQtQtQtQt#g#5#f.karauQtQtao.WQtQtQtQtQtQtQtQtQtQtQtQtQtQtQtQt",
"QtQtQtQtQtQtQtQtQtQtQtQtQtQtQtQtQtQtQtQt.9.raeafag#JQt.b#eQtQtQtQtQtQtQtQtQtQtQtQtQt#D#J#rao#Fav.h#B.ZQtQtQtQtQtQtQtQtQtQtQtQtQtQt"};
